P2
#Criado por Nicao e Diury
512 1
255
99 101 102 101 99 100 103 106 98 100 102 101 99 98 98 99 102 100 97 95 93 90 86 83 83 86 94 104 115 125 133 137 146 148 152 157 162 166 170 172 176 176 176 176 176 176 176 176 177 176 176 176 176 174 170 166 163 162 156 148 142 136 124 112 99 88 78 74 74 73 75 79 81 83 86 89 92 94 96 96 98 99 99 100 101 101 102 102 98 102 102 98 97 101 100 96 98 99 98 97 95 95 97 99 96 97 98 98 100 106 114 120 127 129 136 150 142 146 146 148 151 153 156 156 155 153 152 152 150 157 164 159 145 138 150 168 168 153 120 84 67 65 61 51 53 46 43 47 59 75 76 61 66 82 76 90 118 122 98 50 48 61 81 95 81 77 94 122 81 36 33 34 31 48 95 59 99 65 44 35 44 48 93 92 43 38 40 38 30 37 49 50 71 92 111 96 60 43 42 37 43 43 43 42 42 46 49 51 41 37 39 34 32 51 55 30 27 53 100 148 156 121 100 114 161 181 188 175 166 171 175 172 182 189 197 200 203 204 198 191 186 181 177 177 180 186 195 204 146 114 83 76 83 88 83 78 73 78 82 79 70 64 62 64 58 53 51 50 44 39 45 58 60 59 51 42 42 49 53 50 63 82 105 104 96 119 138 124 124 120 121 124 125 122 125 131 136 139 144 149 153 156 158 158 156 160 166 171 177 184 190 195 190 191 194 196 196 195 194 195 187 195 195 179 158 143 138 138 131 109 99 92 72 57 56 58 55 51 50 51 51 50 53 59 61 61 60 60 66 72 70 65 72 67 55 45 43 46 41 32 40 52 67 85 44 85 158 181 169 151 111 115 115 82 69 59 48 46 64 79 69 57 62 69 64 60 54 50 49 49 49 48 51 47 46 49 50 48 50 54 53 43 38 43 49 61 87 112 130 139 145 141 137 135 132 127 137 143 151 157 159 160 160 160 159 159 160 159 158 157 156 155 156 156 155 155 155 156 157 157 156 156 155 154 153 153 154 154 156 156 156 156 156 156 156 156 158 158 158 157 157 156 156 156 153 153 153 152 152 151 151 151 156 155 154 153 152 153 153 154 155 153 153 154 156 157 156 155 156 154 151 148 146 146 146 147 144 145 146 146 146 145 144 143 143 141 139 138 138 137 134 132